#!OML:ASF H:\ManfredETheater\Project 1\Capture day 1\Session 1\subject.ASF
:FULLY-SPECIFIED
:DEGREES
97
root 2.06263 15.7059 7.68256 11.1755 25.8079 -7.72854
lowerback 13.4607 -0.30957 3.44781
upperback -1.21032 0.507781 3.7588
thorax -8.89553 0.190136 1.97619
lowerneck -19.6069 -1.65149 -2.12022
upperneck 7.92287 -1.54999 -0.816538
head 5.55559 -0.886978 -0.0802487
rclavicle 4.06515e-014 -3.53837e-014
rhumerus -62.5697 -5.76908 -78.545
rradius 77.9185
rwrist -8.24949
rhand -26.534 11.269
rfingers 7.12502
rthumb 0.0299703 -18.7107
lclavicle 4.06515e-014 -3.53837e-014
lhumerus -51.442 -2.08641 97.7788
lradius 118.303
lwrist 21.9197
lhand -20.0073 -7.85411
lfingers 7.12502
lthumb 6.33278 22.0312
rfemur -36.0971 -13.4519 7.71035
rtibia 94.6465
rfoot 1.98958 -7.77405
rtoes -30.7108
lfemur -27.4269 -0.527745 -37.4593
ltibia 54.6625
lfoot -29.6297 -1.47555
ltoes 37.0624
98
root 2.18634 15.6864 8.20153 11.4723 26.3377 -7.1263
lowerback 13.1766 -0.458188 3.01992
upperback -1.3158 0.212603 3.60256
thorax -8.84308 0.0633617 2.1093
lowerneck -19.7321 -1.6473 -2.10053
upperneck 8.04822 -1.54878 -0.784647
head 5.61533 -0.884396 -0.0747166
rclavicle -3.8763e-014 1.64991e-014
rhumerus -64.1862 -5.70989 -78.1544
rradius 78.0809
rwrist -8.91371
rhand -26.6318 11.4191
rfingers 7.12502
rthumb -0.0644869 -18.5607
lclavicle -3.8763e-014 1.64991e-014
lhumerus -48.7384 -2.6569 98.1459
lradius 120.057
lwrist 21.8699
lhand -19.9604 -7.78983
lfingers 7.12502
lthumb 6.37806 22.0941
rfemur -39.1986 -13.6123 7.23514
rtibia 94.5792
rfoot 1.21572 -8.34075
rtoes -30.857
lfemur -25.1348 -0.59941 -37.3817
ltibia 54.3458
lfoot -30.0499 -2.14877
ltoes 35.558
99
root 2.32475 15.6867 8.72765 11.7919 26.8357 -6.49627
lowerback 12.842 -0.64067 2.55125
upperback -1.43583 -0.132357 3.46321
thorax -8.77333 -0.0851914 2.29158
lowerneck -19.8519 -1.58213 -2.03205
upperneck 8.23003 -1.47348 -0.79219
head 5.69135 -0.8478 -0.0820618
rclavicle -1.799e-014 -3.33958e-014
rhumerus -65.8051 -5.3726 -77.9196
rradius 78.5197
rwrist -9.55729
rhand -26.5885 11.6287
rfingers 7.12502
rthumb -0.0226953 -18.3511
lclavicle -1.799e-014 -3.33958e-014
lhumerus -46.3298 -3.29291 98.4876
lradius 121.942
lwrist 22.0369
lhand -19.9178 -7.7631
lfingers 7.12502
lthumb 6.41919 22.1196
rfemur -42.1011 -13.7188 6.82239
rtibia 93.9787
rfoot 0.564915 -8.937
rtoes -30.933
lfemur -22.6641 -0.702891 -37.3048
ltibia 53.6398
lfoot -29.9828 -2.8222
ltoes 33.669
100
root 2.47823 15.7081 9.26118 12.1413 27.3104 -5.85793
lowerback 12.4576 -0.865764 2.06239
upperback -1.57971 -0.533413 3.3486
thorax -8.69497 -0.259505 2.52009
lowerneck -19.9771 -1.44983 -1.91434
upperneck 8.47264 -1.31407 -0.85064
head 5.78687 -0.773347 -0.104906
rclavicle 3.80673e-014 4.37326e-015
rhumerus -67.3965 -4.79188 -77.8194
rradius 79.1688
rwrist -10.0642
rhand -26.4161 11.8646
rfingers 7.12502
rthumb 0.14386 -18.1151
lclavicle 3.80673e-014 4.37326e-015
lhumerus -44.2746 -4.00621 98.7794
lradius 123.93
lwrist 22.4381
lhand -19.8169 -7.76558
lfingers 7.12502
lthumb 6.51657 22.1142
rfemur -44.7705 -13.778 6.49469
rtibia 92.8422
rfoot 0.036228 -9.56971
rtoes -31.0044
lfemur -20.0582 -0.87718 -37.2153
ltibia 52.5601
lfoot -29.3806 -3.48854
ltoes 31.3513
101
root 2.64461 15.7486 9.80255 12.5229 27.7516 -5.2341
lowerback 12.0188 -1.12609 1.55979
upperback -1.75191 -0.978536 3.26518
thorax -8.60822 -0.453985 2.79409
lowerneck -20.1035 -1.25783 -1.7496
upperneck 8.76926 -1.07933 -0.963653
head 5.89964 -0.665762 -0.144722
rclavicle 1.93318e-014 -1.0138e-014
rhumerus -68.947 -4.03111 -77.8209
rradius 79.9693
rwrist -10.3634
rhand -26.1669 12.1166
rfingers 7.12502
rthumb 0.384579 -17.8628
lclavicle 1.93318e-014 -1.0138e-014
lhumerus -42.6139 -4.82327 99.002
lradius 125.988
lwrist 23.045
lhand -19.6674 -7.79158
lfingers 7.12502
lthumb 6.66094 22.0837
rfemur -47.2022 -13.7704 6.2748
rtibia 91.1958
rfoot -0.37784 -10.2465
rtoes -31.1184
lfemur -17.387 -1.11727 -37.0957
ltibia 51.1596
lfoot -28.2083 -4.15503
ltoes 28.5321
102
root 2.82178 15.8045 10.3517 12.9253 28.1439 -4.63915
lowerback 11.5322 -1.41188 1.04936
upperback -1.94776 -1.4527 3.21728
thorax -8.51044 -0.661614 3.1104
lowerneck -20.247 -1.01309 -1.54226
upperneck 9.1172 -0.775796 -1.13657
head 6.03211 -0.529025 -0.203091
rclavicle -9.24349e-015 4.96962e-015
rhumerus -70.4429 -3.15287 -77.8813
rradius 80.861
rwrist -10.4403
rhand -25.8659 12.3499
rfingers 7.12502
rthumb 0.675257 -17.6288
lclavicle -9.24349e-015 4.96962e-015
lhumerus -41.3578 -5.75374 99.1597
lradius 128.059
lwrist 23.727
lhand -19.5153 -7.8451
lfingers 7.12502
lthumb 6.80773 22.0254
rfemur -49.3898 -13.6789 6.15723
rtibia 89.0785
rfoot -0.705068 -10.9504
rtoes -31.2747
lfemur -14.6973 -1.41056 -36.937
ltibia 49.5014
lfoot -26.4559 -4.87289
ltoes 25.2493
